<svg width="20" height="20" viewBox="0 0 20 20" fill="none" xmlns="http://www.w3.org/2000/svg">
<path d="M5.9001 13.4167C5.6001 13.4167 5.30011 13.3417 5.02511 13.1833C4.46677 12.8667 4.13343 12.3 4.13343 11.6667V8.69166C4.13343 8.47499 3.99176 8.10834 3.81676 7.90001L1.71675 5.69166C1.32508 5.30832 1.04175 4.64166 1.04175 4.13333V2.84167C1.04175 1.83334 1.80839 1.03333 2.79173 1.03333H10.2084C11.1751 1.03333 11.9584 1.81666 11.9584 2.78333V4.01667C11.9584 4.66667 11.5834 5.38333 11.2168 5.74999L8.77511 7.90833C8.58344 8.06666 8.42507 8.45001 8.42507 8.73334V11.15C8.42507 11.725 8.07509 12.3667 7.61676 12.6417L6.85006 13.1417C6.55006 13.325 6.2251 13.4167 5.9001 13.4167ZM2.79173 2.29167C2.50839 2.29167 2.29175 2.53334 2.29175 2.85001V4.14167C2.29175 4.28333 2.43343 4.64167 2.61676 4.82501L4.76672 7.08333C5.08339 7.475 5.39172 8.11666 5.39172 8.69166V11.6667C5.39172 11.9167 5.55011 12.0417 5.65011 12.0917C5.78344 12.1667 6.00007 12.2083 6.1834 12.0917L6.95839 11.5917C7.05839 11.5333 7.17507 11.3 7.17507 11.1583V8.74166C7.17507 8.08332 7.50007 7.35832 7.9584 6.96665L10.3584 4.84166C10.5084 4.69166 10.7084 4.28334 10.7084 4.01667V2.78333C10.7084 2.50833 10.4834 2.28333 10.2084 2.28333H2.79173V2.29167Z" fill="#0E0E0E"/>
<path d="M12.5001 18.9584H7.50008C2.97508 18.9584 1.04175 17.025 1.04175 12.5V10C1.04175 9.65837 1.32508 9.37503 1.66675 9.37503C2.00841 9.37503 2.29175 9.65837 2.29175 10V12.5C2.29175 16.3417 3.65841 17.7084 7.50008 17.7084H12.5001C16.3417 17.7084 17.7084 16.3417 17.7084 12.5V7.50003C17.7084 5.08336 17.1417 3.68335 15.8667 2.95835C15.7334 2.88335 15.2918 2.68337 14.0251 2.48337C13.6834 2.43337 13.4501 2.10836 13.5084 1.76669C13.5668 1.42503 13.8918 1.1917 14.2251 1.25003C15.3168 1.42503 16.0584 1.62502 16.4834 1.86669C18.1668 2.82502 18.9584 4.6167 18.9584 7.50003V12.5C18.9584 17.025 17.0251 18.9584 12.5001 18.9584Z" fill="#0E0E0E"/>
<path d="M14.9999 11.4584H10.8333C10.4916 11.4584 10.2083 11.175 10.2083 10.8334C10.2083 10.4917 10.4916 10.2084 10.8333 10.2084H14.9999C15.3416 10.2084 15.6249 10.4917 15.6249 10.8334C15.6249 11.175 15.3416 11.4584 14.9999 11.4584Z" fill="#0E0E0E"/>
<path d="M15.0001 14.7916H9.16675C8.82508 14.7916 8.54175 14.5083 8.54175 14.1666C8.54175 13.825 8.82508 13.5416 9.16675 13.5416H15.0001C15.3417 13.5416 15.6251 13.825 15.6251 14.1666C15.6251 14.5083 15.3417 14.7916 15.0001 14.7916Z" fill="#0E0E0E"/>
</svg>
