<svg width="120" height="40" viewBox="0 0 120 40" fill="none" xmlns="http://www.w3.org/2000/svg">
<path fill-rule="evenodd" clip-rule="evenodd" d="M12.4935 16.3169C12.4935 19.605 14.9276 22.3158 18.0659 22.6926C18.3691 22.729 18.6124 22.9803 18.6124 23.2903V30.8452C18.6124 31.1623 18.8655 31.4194 19.1778 31.4194H21.4572C21.7695 31.4194 22.0227 31.6765 22.0227 31.9936V34.5763C22.0227 35.0777 22.6111 35.3382 22.9729 34.9971L26.6045 31.5728C26.709 31.4742 26.8465 31.4194 26.9892 31.4194H38.4432C38.7555 31.4194 39.0087 31.1623 39.0087 30.8452V23.1428C39.0087 22.8612 39.2108 22.6239 39.4804 22.5577C42.2527 21.8769 44.3118 19.3411 44.3118 16.3169C44.3118 12.771 41.4809 9.89649 37.9889 9.89649C37.6136 9.89649 37.246 9.92969 36.8887 9.99336C36.6192 10.0414 36.3458 9.90889 36.2192 9.66255C34.7491 6.8016 31.8004 4.84851 28.4025 4.84851C25.0046 4.84851 22.0559 6.80158 20.5858 9.66251C20.4592 9.90884 20.1859 10.0413 19.9164 9.99332C19.5591 9.92968 19.1916 9.89649 18.8164 9.89649C15.3243 9.89649 12.4935 12.771 12.4935 16.3169ZM29.1606 23.788C29.1606 23.3696 28.8036 23.0304 28.3632 23.0304H22.3823C21.9419 23.0304 21.5848 23.3696 21.5848 23.788C21.5848 24.2064 21.9419 24.5455 22.3823 24.5455H28.3632C28.8036 24.5455 29.1606 24.2064 29.1606 23.788ZM34.4549 26.0607C34.878 26.0607 35.221 26.3999 35.221 26.8183C35.221 27.2367 34.878 27.5759 34.4549 27.5759H22.3507C21.9276 27.5759 21.5846 27.2367 21.5846 26.8183C21.5846 26.3999 21.9276 26.0607 22.3507 26.0607H34.4549Z" fill="#FF6339"/>
<path d="M51.9807 27H48.7214C48.8425 27 48.9412 26.9028 49.0177 26.7085L49.0225 26.6989C49.1404 26.3835 49.2073 25.9773 49.2232 25.4803C49.2264 25.2923 49.228 22.4568 49.228 16.9737C49.228 16.4257 49.1595 15.9653 49.0225 15.5926L49.0177 15.583C48.9412 15.395 48.8425 15.3011 48.7214 15.3011H58.2794V16.3763C58.2698 16.2616 58.1902 16.1708 58.0404 16.1039L58.0309 16.0991C57.7218 15.9653 57.2567 15.8905 56.6354 15.8745H51.5936C51.5107 16.2664 51.4693 16.6599 51.4693 17.0549V20.7348L55.0201 20.73C55.1475 20.7268 55.2973 20.7156 55.4693 20.6965C55.8198 20.6615 56.0954 20.5994 56.2961 20.5101L56.3056 20.5054C56.4554 20.4385 56.535 20.3477 56.5446 20.233V21.81C56.535 21.6953 56.4554 21.6045 56.3056 21.5376L56.2961 21.5328C56.2037 21.4882 56.0954 21.4532 55.9711 21.4277C55.6589 21.3576 55.2829 21.3162 54.8433 21.3035L51.4693 21.3082V25.2843C51.4916 26.0394 51.5808 26.5524 51.7369 26.8232C51.8038 26.9411 51.8851 27 51.9807 27ZM61.8015 27.0287C61.0846 27.0287 60.3917 26.8439 59.7226 26.4743C58.7158 25.8849 58.05 25.0295 57.725 23.908C57.6231 23.5193 57.5721 23.1354 57.5721 22.7563C57.5721 22.0394 57.7569 21.3465 58.1264 20.6774C58.7127 19.6674 59.5681 19.0016 60.6928 18.6798C61.0623 18.5778 61.4446 18.5269 61.8397 18.5269C62.5629 18.5269 63.2575 18.7117 63.9233 19.0812C64.9333 19.6706 65.5992 20.5261 65.921 21.6475C66.0229 22.0362 66.0739 22.4201 66.0739 22.7993C66.0739 23.5161 65.8891 24.2091 65.5195 24.8781C64.9301 25.8881 64.0747 26.554 62.9532 26.8757C62.5645 26.9777 62.1806 27.0287 61.8015 27.0287ZM62.4992 26.3644C62.6298 26.3644 62.7589 26.3421 62.8863 26.2975C63.2208 26.1669 63.4837 25.9024 63.6748 25.5042C63.8851 25.0645 63.9902 24.5261 63.9902 23.8889C63.9902 23.3664 63.9106 22.8152 63.7513 22.2354C63.49 21.321 63.1141 20.5834 62.6235 20.0227C62.136 19.462 61.6326 19.1784 61.1133 19.172C60.954 19.2007 60.7756 19.2501 60.5781 19.3202C60.1352 19.591 59.8485 20.0928 59.7178 20.8256C59.6732 21.0804 59.6509 21.3481 59.6509 21.6284C59.6509 22.1446 59.729 22.7021 59.8851 23.3011C60.0635 23.9446 60.3057 24.5054 60.6115 24.9833C60.9205 25.4612 61.2583 25.8228 61.6247 26.0681C61.9178 26.2656 62.2093 26.3644 62.4992 26.3644ZM71.0345 27.0287C70.3176 27.0287 69.6247 26.8439 68.9556 26.4743C67.9488 25.8849 67.283 25.0295 66.958 23.908C66.856 23.5193 66.8051 23.1354 66.8051 22.7563C66.8051 22.0394 66.9899 21.3465 67.3594 20.6774C67.9457 19.6674 68.8011 19.0016 69.9257 18.6798C70.2953 18.5778 70.6776 18.5269 71.0727 18.5269C71.7959 18.5269 72.4905 18.7117 73.1563 19.0812C74.1663 19.6706 74.8322 20.5261 75.154 21.6475C75.2559 22.0362 75.3069 22.4201 75.3069 22.7993C75.3069 23.5161 75.1221 24.2091 74.7525 24.8781C74.1631 25.8881 73.3077 26.554 72.1862 26.8757C71.7975 26.9777 71.4136 27.0287 71.0345 27.0287ZM71.7322 26.3644C71.8628 26.3644 71.9919 26.3421 72.1193 26.2975C72.4538 26.1669 72.7167 25.9024 72.9078 25.5042C73.1181 25.0645 73.2232 24.5261 73.2232 23.8889C73.2232 23.3664 73.1436 22.8152 72.9843 22.2354C72.723 21.321 72.3471 20.5834 71.8565 20.0227C71.369 19.462 70.8656 19.1784 70.3463 19.172C70.187 19.2007 70.0086 19.2501 69.811 19.3202C69.3682 19.591 69.0815 20.0928 68.9508 20.8256C68.9062 21.0804 68.8839 21.3481 68.8839 21.6284C68.8839 22.1446 68.962 22.7021 69.1181 23.3011C69.2965 23.9446 69.5386 24.5054 69.8445 24.9833C70.1535 25.4612 70.4913 25.8228 70.8576 26.0681C71.1508 26.2656 71.4423 26.3644 71.7322 26.3644ZM86.2746 27C86.281 27 86.2874 27 86.2938 27C85.8159 27 85.2806 27 84.688 27C84.0954 27 83.5427 27 83.0297 27C83.1635 26.9841 83.2655 26.8853 83.3356 26.7037C83.4057 26.5189 83.4534 26.3166 83.4789 26.0968C83.5076 25.8769 83.5251 25.7017 83.5315 25.5711C83.5315 25.5552 83.5315 25.5408 83.5315 25.5281C83.0058 26.1111 82.418 26.5157 81.7681 26.7419C81.1213 26.9681 80.4682 27.0366 79.8087 26.9474C79.1524 26.855 78.547 26.6272 77.9927 26.264C77.4383 25.9008 76.9907 25.4229 76.6498 24.8303C76.3089 24.2346 76.1305 23.5432 76.1145 22.7563C76.1082 21.9948 76.2945 21.2939 76.6737 20.6535C77.056 20.0131 77.5641 19.5002 78.1982 19.1147C78.8354 18.726 79.5347 18.5316 80.2961 18.5316C80.7485 18.6941 81.2535 18.8789 81.8111 19.086C82.4451 19.3186 83.0217 19.5273 83.5411 19.7121V18.1493C83.5411 17.9104 83.5347 17.7017 83.5219 17.5233C83.5092 17.3449 83.4901 17.1919 83.4646 17.0645C83.4423 16.9371 83.4168 16.8319 83.3881 16.7491C83.3595 16.6631 83.3292 16.5962 83.2973 16.5484C83.2687 16.4974 83.2384 16.4608 83.2065 16.4385C83.1779 16.413 83.1508 16.397 83.1253 16.3907C83.103 16.3811 83.0839 16.3779 83.0679 16.3811C83.052 16.3811 83.0425 16.3827 83.0393 16.3859C83.9536 16.0291 84.868 15.6674 85.7824 15.3011C85.7824 15.368 85.7824 15.8108 85.7824 16.6296C85.7824 17.4452 85.7824 18.4185 85.7824 19.5496C85.7824 20.91 85.7824 22.1573 85.7824 23.2915C85.7824 24.4225 85.7824 25.0741 85.7824 25.2461C85.7824 25.3258 85.7888 25.4723 85.8015 25.6858C85.8111 25.9024 85.8413 26.1286 85.8923 26.3644C85.9146 26.4855 85.9544 26.6161 86.0118 26.7563C86.0691 26.8933 86.1568 26.9745 86.2746 27ZM81.4622 26.2162C82.3702 25.9136 83.0632 25.3417 83.5411 24.5006V20.2951C83.3021 20.2059 82.9102 20.0593 82.3654 19.8554C81.9608 19.7057 81.5705 19.5607 81.1946 19.4205C80.8218 19.2804 80.5542 19.18 80.3917 19.1195C79.6143 19.6005 79.0568 20.2361 78.7191 21.0263C78.3814 21.8164 78.281 22.6352 78.418 23.4827C78.5582 24.327 78.9501 25.0741 79.5936 25.724C79.8549 25.9853 80.14 26.2067 80.4491 26.3883C80.7963 26.3787 81.134 26.3214 81.4622 26.2162ZM89.9831 27.0143H86.7239C86.8417 27.0143 86.9421 26.914 87.0249 26.7133C87.1651 26.3278 87.2352 25.8467 87.2352 25.27V21.356C87.2288 20.9355 87.2065 20.6009 87.1683 20.3524C87.1046 19.951 87.0026 19.7105 86.8625 19.6308C86.8274 19.6117 86.7971 19.6021 86.7717 19.6021L86.7334 19.6117L89.4766 18.5269V25.2987C89.4766 25.4006 89.4845 25.5599 89.5005 25.7766C89.5355 26.2672 89.6152 26.6209 89.7394 26.8375C89.8063 26.9554 89.8876 27.0143 89.9831 27.0143ZM88.3535 17.7527C88.0699 17.7527 87.8278 17.6539 87.6271 17.4564C87.4264 17.2557 87.326 17.0135 87.326 16.73C87.326 16.4464 87.4264 16.2043 87.6271 16.0036C87.8278 15.8028 88.0699 15.7025 88.3535 15.7025C88.6371 15.7025 88.8792 15.8028 89.0799 16.0036C89.2806 16.2043 89.381 16.4464 89.381 16.73C89.381 17.0135 89.2806 17.2557 89.0799 17.4564C88.8792 17.6539 88.6371 17.7527 88.3535 17.7527ZM98.2603 16.491L96.8744 17.3656C96.8744 17.3656 96.8744 17.3162 96.8744 17.2174C96.8744 17.1155 96.8569 16.9928 96.8219 16.8494C96.79 16.7029 96.7279 16.5563 96.6355 16.4098C96.5431 16.2632 96.4077 16.1406 96.2293 16.0418C96.0508 15.943 95.8151 15.8905 95.522 15.8841C95.4933 15.8841 95.4662 15.8841 95.4407 15.8841C95.0616 15.9032 94.7653 16.0291 94.5518 16.2616C94.3416 16.4942 94.1902 16.8064 94.0978 17.1983C94.0086 17.587 93.9545 18.0283 93.9353 18.5221H96.3679V19.0956H93.9162C93.9162 19.1657 93.9162 19.5097 93.9162 20.1278C93.9162 20.7459 93.9162 21.4532 93.9162 22.2497C93.9162 23.043 93.9162 23.7471 93.9162 24.362C93.9162 24.9769 93.9162 25.2843 93.9162 25.2843C93.9162 25.3863 93.9242 25.5472 93.9401 25.767C93.9561 25.9837 93.9879 26.2035 94.0357 26.4265C94.0739 26.5858 94.1233 26.7196 94.1839 26.828C94.2444 26.9331 94.3209 26.9904 94.4132 27C94.4164 27 94.4196 27 94.4228 27H91.1635C91.2304 27 91.2878 26.9745 91.3356 26.9235C91.3866 26.8694 91.4296 26.7977 91.4646 26.7085C91.4646 26.7053 91.4662 26.7021 91.4694 26.6989C91.5363 26.5205 91.5841 26.3182 91.6128 26.092C91.6414 25.8626 91.659 25.6603 91.6653 25.4851C91.6717 25.3066 91.6749 25.2174 91.6749 25.2174V19.258C91.6749 19.2039 91.6765 19.1497 91.6797 19.0956H90.4132V18.5221H91.7418C91.8501 17.9614 92.0572 17.4564 92.3631 17.0071C92.6721 16.5547 93.056 16.1836 93.5148 15.8936C93.5594 15.865 93.6247 15.8283 93.7107 15.7837C93.7999 15.7359 93.8844 15.6929 93.964 15.6547C94.0469 15.6133 94.1026 15.5878 94.1313 15.5782C94.5678 15.3998 95.0313 15.3106 95.522 15.3106C96.0572 15.3106 96.559 15.4157 97.0273 15.626C97.4957 15.8363 97.9067 16.1246 98.2603 16.491ZM107.03 18.5412C106.867 18.5412 106.706 18.5954 106.547 18.7037C106.391 18.8088 106.243 18.9426 106.103 19.1051C105.966 19.2644 105.841 19.4285 105.73 19.5974C105.622 19.763 105.531 19.9112 105.457 20.0418C105.387 20.1724 105.343 20.26 105.324 20.3046C105.324 20.3046 105.18 20.6057 104.894 21.2079C104.607 21.81 104.253 22.5476 103.833 23.4205C103.415 24.2935 102.992 25.1649 102.561 26.0346C102.134 26.9012 101.77 27.6245 101.467 28.2043C100.776 29.5137 100.174 30.546 99.6606 31.3011C99.3579 31.7439 99.1014 32.0737 98.8912 32.2903C98.6809 32.5102 98.5056 32.6535 98.3655 32.7204C98.2285 32.7873 98.1122 32.8208 98.0166 32.8208V30.3883C98.0166 30.3883 98.0851 30.3963 98.2221 30.4122C98.3623 30.4281 98.5359 30.4249 98.743 30.4026C98.9533 30.3835 99.1683 30.3214 99.3882 30.2163C99.608 30.1111 99.8055 29.9423 99.9808 29.7097C100.092 29.5185 100.252 29.2318 100.459 28.8495C100.666 28.4671 100.865 28.096 101.056 27.736C101.247 27.3791 101.373 27.1418 101.434 27.0239H101.424H101.419L101.424 27.0191L98.0978 20.1804C98.0437 20.0657 97.9624 19.9191 97.8541 19.7407C97.749 19.5623 97.6231 19.3823 97.4766 19.2007C97.33 19.0159 97.1691 18.8598 96.9939 18.7324C96.8187 18.6049 96.6371 18.5412 96.4491 18.5412H100.65C100.491 18.5412 100.382 18.5906 100.325 18.6894C100.271 18.7881 100.248 18.914 100.258 19.0669C100.271 19.2166 100.301 19.3727 100.349 19.5352C100.4 19.6945 100.452 19.8411 100.506 19.9749C100.561 20.1087 100.604 20.2075 100.635 20.2712L102.667 24.4576L104.755 20.1565C104.796 20.0641 104.841 19.951 104.889 19.8172C104.937 19.6834 104.978 19.5432 105.013 19.3966C105.048 19.2469 105.066 19.1083 105.066 18.9809C105.066 18.8502 105.037 18.7451 104.98 18.6655C104.925 18.5826 104.831 18.5412 104.698 18.5412H107.03Z" fill="white"/>
</svg>
