<svg width="120" height="120" viewBox="0 0 120 120" fill="none" xmlns="http://www.w3.org/2000/svg">
<rect x="0.5" y="0.5" width="119" height="119" rx="5.5" stroke="white"/>
<path fill-rule="evenodd" clip-rule="evenodd" d="M33.1218 42.2774C33.1218 47.8326 37.2342 52.4124 42.5363 53.049C43.0486 53.1105 43.4595 53.5351 43.4595 54.0589V66.8228C43.4595 67.3585 43.8872 67.7929 44.4148 67.7929H48.2659C48.7934 67.7929 49.2212 68.2272 49.2212 68.7629V73.1264C49.2212 73.9734 50.2152 74.4136 50.8265 73.8372L56.962 68.0521C57.1387 67.8854 57.3709 67.7929 57.612 67.7929H76.9634C77.491 67.7929 77.9187 67.3585 77.9187 66.8228V53.8097C77.9187 53.3339 78.2603 52.9329 78.7157 52.8211C83.3994 51.671 86.8782 47.3868 86.8782 42.2774C86.8782 36.2867 82.0956 31.4302 76.1959 31.4302C75.5619 31.4302 74.9407 31.4863 74.337 31.5939C73.8817 31.675 73.4199 31.4512 73.206 31.035C70.7223 26.2015 65.7405 22.9017 59.9998 22.9017C54.259 22.9017 49.2773 26.2014 46.7935 31.0349C46.5797 31.4511 46.1179 31.6749 45.6626 31.5938C45.059 31.4863 44.438 31.4302 43.8041 31.4302C37.9044 31.4302 33.1218 36.2867 33.1218 42.2774ZM61.2806 54.8997C61.2806 54.1928 60.6774 53.6198 59.9333 53.6198L49.8287 53.6198C49.0846 53.6198 48.4814 54.1928 48.4814 54.8997C48.4814 55.6066 49.0846 56.1796 49.8287 56.1796L59.9333 56.1796C60.6774 56.1796 61.2806 55.6066 61.2806 54.8997ZM70.2252 58.7394C70.94 58.7394 71.5195 59.3125 71.5195 60.0194C71.5195 60.7262 70.94 61.2993 70.2252 61.2993H49.7754C49.0605 61.2993 48.481 60.7262 48.481 60.0194C48.481 59.3125 49.0605 58.7394 49.7754 58.7394H70.2252Z" fill="#FF6339"/>
<path d="M17.6797 99.0983H12.3516C12.5495 99.0983 12.7109 98.9394 12.8359 98.6217L12.8438 98.6061C13.0365 98.0905 13.1458 97.4264 13.1719 96.6139C13.1771 96.3066 13.1797 91.6712 13.1797 82.7076C13.1797 81.8118 13.0677 81.0592 12.8438 80.4498L12.8359 80.4342C12.7109 80.1269 12.5495 79.9733 12.3516 79.9733H27.9766V81.7311C27.9609 81.5436 27.8307 81.3951 27.5859 81.2858L27.5703 81.278C27.0651 81.0592 26.3047 80.9368 25.2891 80.9108H17.0469C16.9115 81.5514 16.8438 82.1946 16.8438 82.8405V88.8561L22.6484 88.8483C22.8568 88.8431 23.1016 88.8248 23.3828 88.7936C23.9557 88.7363 24.4062 88.6347 24.7344 88.4889L24.75 88.4811C24.9948 88.3717 25.125 88.2233 25.1406 88.0358V90.6139C25.125 90.4264 24.9948 90.278 24.75 90.1686L24.7344 90.1608C24.5833 90.0878 24.4062 90.0306 24.2031 89.9889C23.6927 89.8743 23.0781 89.8066 22.3594 89.7858L16.8438 89.7936V96.2936C16.8802 97.528 17.026 98.3665 17.2812 98.8092C17.3906 99.0019 17.5234 99.0983 17.6797 99.0983ZM33.7344 99.1451C32.5625 99.1451 31.4297 98.8431 30.3359 98.2389C28.6901 97.2753 27.6016 95.8769 27.0703 94.0436C26.9036 93.4082 26.8203 92.7806 26.8203 92.1608C26.8203 90.9889 27.1224 89.8561 27.7266 88.7623C28.6849 87.1113 30.0833 86.0227 31.9219 85.4967C32.526 85.33 33.151 85.2467 33.7969 85.2467C34.9792 85.2467 36.1146 85.5488 37.2031 86.153C38.8542 87.1165 39.9427 88.5149 40.4688 90.3483C40.6354 90.9837 40.7188 91.6113 40.7188 92.2311C40.7188 93.403 40.4167 94.5358 39.8125 95.6295C38.849 97.2806 37.4505 98.3691 35.6172 98.8951C34.9818 99.0618 34.3542 99.1451 33.7344 99.1451ZM34.875 98.0592C35.0885 98.0592 35.2995 98.0227 35.5078 97.9498C36.0547 97.7363 36.4844 97.304 36.7969 96.653C37.1406 95.9342 37.3125 95.054 37.3125 94.0123C37.3125 93.1582 37.1823 92.2571 36.9219 91.3092C36.4948 89.8144 35.8802 88.6087 35.0781 87.692C34.2812 86.7753 33.4583 86.3118 32.6094 86.3014C32.349 86.3483 32.0573 86.429 31.7344 86.5436C31.0104 86.9863 30.5417 87.8066 30.3281 89.0045C30.2552 89.4212 30.2188 89.8587 30.2188 90.317C30.2188 91.1608 30.3464 92.0722 30.6016 93.0514C30.8932 94.1035 31.2891 95.0201 31.7891 95.8014C32.2943 96.5826 32.8464 97.1738 33.4453 97.5748C33.9245 97.8977 34.401 98.0592 34.875 98.0592ZM48.8281 99.1451C47.6562 99.1451 46.5234 98.8431 45.4297 98.2389C43.7839 97.2753 42.6953 95.8769 42.1641 94.0436C41.9974 93.4082 41.9141 92.7806 41.9141 92.1608C41.9141 90.9889 42.2161 89.8561 42.8203 88.7623C43.7786 87.1113 45.1771 86.0227 47.0156 85.4967C47.6198 85.33 48.2448 85.2467 48.8906 85.2467C50.0729 85.2467 51.2083 85.5488 52.2969 86.153C53.9479 87.1165 55.0365 88.5149 55.5625 90.3483C55.7292 90.9837 55.8125 91.6113 55.8125 92.2311C55.8125 93.403 55.5104 94.5358 54.9062 95.6295C53.9427 97.2806 52.5443 98.3691 50.7109 98.8951C50.0755 99.0618 49.4479 99.1451 48.8281 99.1451ZM49.9688 98.0592C50.1823 98.0592 50.3932 98.0227 50.6016 97.9498C51.1484 97.7363 51.5781 97.304 51.8906 96.653C52.2344 95.9342 52.4062 95.054 52.4062 94.0123C52.4062 93.1582 52.276 92.2571 52.0156 91.3092C51.5885 89.8144 50.974 88.6087 50.1719 87.692C49.375 86.7753 48.5521 86.3118 47.7031 86.3014C47.4427 86.3483 47.151 86.429 46.8281 86.5436C46.1042 86.9863 45.6354 87.8066 45.4219 89.0045C45.349 89.4212 45.3125 89.8587 45.3125 90.317C45.3125 91.1608 45.4401 92.0722 45.6953 93.0514C45.987 94.1035 46.3828 95.0201 46.8828 95.8014C47.388 96.5826 47.9401 97.1738 48.5391 97.5748C49.0182 97.8977 49.4948 98.0592 49.9688 98.0592ZM73.7422 99.0983C73.7526 99.0983 73.763 99.0983 73.7734 99.0983C72.9922 99.0983 72.1172 99.0983 71.1484 99.0983C70.1797 99.0983 69.276 99.0983 68.4375 99.0983C68.6562 99.0722 68.8229 98.9108 68.9375 98.6139C69.0521 98.3118 69.1302 97.9811 69.1719 97.6217C69.2188 97.2623 69.2474 96.9759 69.2578 96.7623C69.2578 96.7363 69.2578 96.7128 69.2578 96.692C68.3984 97.6451 67.4375 98.3066 66.375 98.6764C65.3177 99.0462 64.25 99.1582 63.1719 99.0123C62.099 98.8613 61.1094 98.4889 60.2031 97.8951C59.2969 97.3014 58.5651 96.5201 58.0078 95.5514C57.4505 94.5774 57.1589 93.4472 57.1328 92.1608C57.1224 90.916 57.4271 89.7701 58.0469 88.7233C58.6719 87.6764 59.5026 86.8378 60.5391 86.2076C61.5807 85.5722 62.724 85.2545 63.9688 85.2545C64.7083 85.5201 65.5339 85.8222 66.4453 86.1608C67.4818 86.541 68.4245 86.8821 69.2734 87.1842V84.6295C69.2734 84.2389 69.263 83.8977 69.2422 83.6061C69.2214 83.3144 69.1901 83.0644 69.1484 82.8561C69.112 82.6477 69.0703 82.4759 69.0234 82.3405C68.9766 82.1998 68.9271 82.0905 68.875 82.0123C68.8281 81.929 68.7786 81.8691 68.7266 81.8326C68.6797 81.791 68.6354 81.7649 68.5938 81.7545C68.5573 81.7389 68.526 81.7337 68.5 81.7389C68.474 81.7389 68.4583 81.7415 68.4531 81.7467C69.9479 81.1634 71.4427 80.5722 72.9375 79.9733C72.9375 80.0826 72.9375 80.8066 72.9375 82.1451C72.9375 83.4785 72.9375 85.0696 72.9375 86.9186C72.9375 89.1425 72.9375 91.1816 72.9375 93.0358C72.9375 94.8847 72.9375 95.9498 72.9375 96.2311C72.9375 96.3613 72.9479 96.6009 72.9688 96.9498C72.9844 97.304 73.0339 97.6738 73.1172 98.0592C73.1536 98.2571 73.2188 98.4707 73.3125 98.6998C73.4062 98.9238 73.5495 99.0566 73.7422 99.0983ZM65.875 97.817C67.3594 97.3222 68.4922 96.3873 69.2734 95.0123V88.1373C68.8828 87.9915 68.2422 87.7519 67.3516 87.4186C66.6901 87.1738 66.0521 86.9368 65.4375 86.7076C64.8281 86.4785 64.3906 86.3144 64.125 86.2155C62.8542 87.0019 61.9427 88.041 61.3906 89.3326C60.8385 90.6243 60.6745 91.9628 60.8984 93.3483C61.1276 94.7285 61.7682 95.9498 62.8203 97.0123C63.2474 97.4394 63.7135 97.8014 64.2188 98.0983C64.7865 98.0826 65.3385 97.9889 65.875 97.817ZM79.8047 99.1217H74.4766C74.6693 99.1217 74.8333 98.9576 74.9688 98.6295C75.1979 97.9993 75.3125 97.2128 75.3125 96.2701V89.8717C75.3021 89.1842 75.2656 88.6373 75.2031 88.2311C75.099 87.5748 74.9323 87.1816 74.7031 87.0514C74.6458 87.0201 74.5964 87.0045 74.5547 87.0045L74.4922 87.0201L78.9766 85.2467V96.317C78.9766 96.4837 78.9896 96.7441 79.0156 97.0983C79.0729 97.9003 79.2031 98.4785 79.4062 98.8326C79.5156 99.0253 79.6484 99.1217 79.8047 99.1217ZM77.1406 83.9811C76.6771 83.9811 76.2812 83.8196 75.9531 83.4967C75.625 83.1686 75.4609 82.7727 75.4609 82.3092C75.4609 81.8457 75.625 81.4498 75.9531 81.1217C76.2812 80.7936 76.6771 80.6295 77.1406 80.6295C77.6042 80.6295 78 80.7936 78.3281 81.1217C78.6562 81.4498 78.8203 81.8457 78.8203 82.3092C78.8203 82.7727 78.6562 83.1686 78.3281 83.4967C78 83.8196 77.6042 83.9811 77.1406 83.9811ZM93.3359 81.9186L91.0703 83.3483C91.0703 83.3483 91.0703 83.2675 91.0703 83.1061C91.0703 82.9394 91.0417 82.7389 90.9844 82.5045C90.9323 82.2649 90.8307 82.0253 90.6797 81.7858C90.5286 81.5462 90.3073 81.3457 90.0156 81.1842C89.724 81.0227 89.3385 80.9368 88.8594 80.9264C88.8125 80.9264 88.7682 80.9264 88.7266 80.9264C88.1068 80.9576 87.6224 81.1634 87.2734 81.5436C86.9297 81.9238 86.6823 82.4342 86.5312 83.0748C86.3854 83.7102 86.2969 84.4316 86.2656 85.2389H90.2422V86.1764H86.2344C86.2344 86.291 86.2344 86.8535 86.2344 87.8639C86.2344 88.8743 86.2344 90.0306 86.2344 91.3326C86.2344 92.6295 86.2344 93.7806 86.2344 94.7858C86.2344 95.791 86.2344 96.2936 86.2344 96.2936C86.2344 96.4602 86.2474 96.7233 86.2734 97.0826C86.2995 97.4368 86.3516 97.7962 86.4297 98.1608C86.4922 98.4212 86.5729 98.6399 86.6719 98.817C86.7708 98.9889 86.8958 99.0826 87.0469 99.0983C87.0521 99.0983 87.0573 99.0983 87.0625 99.0983H81.7344C81.8438 99.0983 81.9375 99.0566 82.0156 98.9733C82.099 98.8847 82.1693 98.7675 82.2266 98.6217C82.2266 98.6165 82.2292 98.6113 82.2344 98.6061C82.3438 98.3144 82.4219 97.9837 82.4688 97.6139C82.5156 97.2389 82.5443 96.9082 82.5547 96.6217C82.5651 96.33 82.5703 96.1842 82.5703 96.1842V86.442C82.5703 86.3535 82.5729 86.2649 82.5781 86.1764H80.5078V85.2389H82.6797C82.8568 84.3222 83.1953 83.4967 83.6953 82.7623C84.2005 82.0227 84.8281 81.416 85.5781 80.942C85.651 80.8951 85.7578 80.8352 85.8984 80.7623C86.0443 80.6842 86.1823 80.6139 86.3125 80.5514C86.4479 80.4837 86.5391 80.442 86.5859 80.4264C87.2995 80.1347 88.0573 79.9889 88.8594 79.9889C89.7344 79.9889 90.5547 80.1608 91.3203 80.5045C92.0859 80.8483 92.7578 81.3196 93.3359 81.9186ZM107.672 85.2701C107.406 85.2701 107.143 85.3587 106.883 85.5358C106.628 85.7076 106.385 85.9264 106.156 86.192C105.932 86.4524 105.729 86.7207 105.547 86.9967C105.37 87.2675 105.221 87.5097 105.102 87.7233C104.987 87.9368 104.914 88.08 104.883 88.153C104.883 88.153 104.648 88.6451 104.18 89.6295C103.711 90.6139 103.133 91.8196 102.445 93.2467C101.763 94.6738 101.07 96.0983 100.367 97.5201C99.6693 98.9368 99.0729 100.119 98.5781 101.067C97.4479 103.208 96.4635 104.895 95.625 106.13C95.1302 106.853 94.7109 107.393 94.3672 107.747C94.0234 108.106 93.737 108.34 93.5078 108.45C93.2839 108.559 93.0938 108.614 92.9375 108.614V104.637C92.9375 104.637 93.0495 104.65 93.2734 104.676C93.5026 104.702 93.7865 104.697 94.125 104.661C94.4688 104.63 94.8203 104.528 95.1797 104.356C95.5391 104.184 95.862 103.908 96.1484 103.528C96.3307 103.215 96.5911 102.747 96.9297 102.122C97.2682 101.497 97.5938 100.89 97.9062 100.301C98.2188 99.7181 98.4245 99.33 98.5234 99.1373H98.5078H98.5L98.5078 99.1295L93.0703 87.9498C92.9818 87.7623 92.849 87.5227 92.6719 87.2311C92.5 86.9394 92.2943 86.6451 92.0547 86.3483C91.8151 86.0462 91.5521 85.791 91.2656 85.5826C90.9792 85.3743 90.6823 85.2701 90.375 85.2701H97.2422C96.9818 85.2701 96.8047 85.3509 96.7109 85.5123C96.6224 85.6738 96.5859 85.8795 96.6016 86.1295C96.6224 86.3743 96.6719 86.6295 96.75 86.8951C96.8333 87.1556 96.9193 87.3951 97.0078 87.6139C97.0964 87.8326 97.1667 87.9941 97.2188 88.0983L100.539 94.942L103.953 87.9108C104.021 87.7597 104.094 87.5748 104.172 87.3561C104.25 87.1373 104.318 86.9082 104.375 86.6686C104.432 86.4238 104.461 86.1972 104.461 85.9889C104.461 85.7753 104.414 85.6035 104.32 85.4733C104.232 85.3378 104.078 85.2701 103.859 85.2701H107.672Z" fill="white"/>
</svg>
